<?xml version="1.0" encoding="utf-8"?>
<!-- Generator: Adobe Illustrator 18.1.0, SVG Export Plug-In . SVG Version: 6.00 Build 0)  -->
<svg version="1.1" xmlns="http://www.w3.org/2000/svg" xmlns:xlink="http://www.w3.org/1999/xlink" x="0px" y="0px"
	 viewBox="-201 83 76 76" enable-background="new -201 83 76 76" xml:space="preserve">
<g id="Warstwa_2">
	<g>
		<g opacity="0.25">
			<circle fill="#1D1D1B" cx="-163" cy="123" r="34.9"/>
			<path fill="#1D1D1B" d="M-163,89.1c18.7,0,33.9,15.2,33.9,33.9s-15.2,33.9-33.9,33.9s-33.9-15.2-33.9-33.9S-181.7,89.1-163,89.1
				 M-163,88.1c-19.3,0-34.9,15.6-34.9,34.9s15.6,34.9,34.9,34.9s34.9-15.6,34.9-34.9S-143.7,88.1-163,88.1L-163,88.1z"/>
		</g>
		<g>
			<linearGradient id="SVGID_1_" gradientUnits="userSpaceOnUse" x1="-163" y1="86.1167" x2="-163" y2="155.8833">
				<stop  offset="0.1281" style="stop-color:#D4D4D4"/>
				<stop  offset="0.9015" style="stop-color:#FFFFFF"/>
				<stop  offset="1" style="stop-color:#FFFFFF"/>
			</linearGradient>
			<circle fill="url(#SVGID_1_)" cx="-163" cy="121" r="34.9"/>
			<g opacity="0.18">
				<path fill="#848484" d="M-163,87.1c18.7,0,33.9,15.2,33.9,33.9s-15.2,33.9-33.9,33.9s-33.9-15.2-33.9-33.9S-181.7,87.1-163,87.1
					 M-163,86.1c-19.3,0-34.9,15.6-34.9,34.9s15.6,34.9,34.9,34.9s34.9-15.6,34.9-34.9S-143.7,86.1-163,86.1L-163,86.1z"/>
			</g>
		</g>
	</g>
	<g>
		<g opacity="0.25">
			<circle fill="#1D1D1B" cx="-162.9" cy="122.1" r="30.3"/>
			<path fill="#1D1D1B" d="M-162.9,92.8c16.1,0,29.3,13.1,29.3,29.3s-13.1,29.3-29.3,29.3s-29.3-13.1-29.3-29.3
				S-179,92.8-162.9,92.8 M-162.9,91.8c-16.7,0-30.3,13.6-30.3,30.3s13.6,30.3,30.3,30.3s30.3-13.6,30.3-30.3
				S-146.2,91.8-162.9,91.8L-162.9,91.8z"/>
		</g>
		<g>
			<linearGradient id="SVGID_2_" gradientUnits="userSpaceOnUse" x1="-162.8925" y1="90.8282" x2="-162.8925" y2="151.3867">
				<stop  offset="0.1281" style="stop-color:#D67B20"/>
				<stop  offset="0.9015" style="stop-color:#FBBD40"/>
				<stop  offset="1" style="stop-color:#FAB72F"/>
			</linearGradient>
			<circle fill="url(#SVGID_2_)" cx="-162.9" cy="121.1" r="30.3"/>
			<g opacity="0.18">
				<path fill="#FF4200" d="M-162.9,91.8c16.1,0,29.3,13.1,29.3,29.3s-13.1,29.3-29.3,29.3s-29.3-13.1-29.3-29.3
					S-179,91.8-162.9,91.8 M-162.9,90.8c-16.7,0-30.3,13.6-30.3,30.3s13.6,30.3,30.3,30.3s30.3-13.6,30.3-30.3
					S-146.2,90.8-162.9,90.8L-162.9,90.8z"/>
			</g>
		</g>
	</g>
</g>
<g id="Warstwa_1">
	<g>
		<g opacity="0.25">
			<path fill="none" stroke="#1D1D1B" stroke-width="2" d="M-145.9,106.1c-0.1,2.5-1.4,8.2-12.8,20.8l-2.5,1.7l-4.1,2.6l-2.9,1.9
				l-2-2l-2.4-2.4l1.1-2.8c0.2-0.4,0.4-0.8,0.6-1.2l2.6-3.9c0.5-0.7,1.3-1.8,2-2.4C-155.1,107.6-148.6,105.8-145.9,106.1z
				 M-176.5,136.7l2.8-7.6l4.8,4.8L-176.5,136.7z M-152.2,112.4l-1.8-1.1l-2.9,2.1l2.4,1.4l1.4,2.3l2-3L-152.2,112.4z"/>
			<path fill="#1D1D1B" d="M-145.9,106.1c-0.1,2.5-1.4,8.2-12.8,20.8l-2.5,1.7l-4.1,2.6l-2.9,1.9l-2-2l-2.4-2.4l1.1-2.8
				c0.2-0.4,0.4-0.8,0.6-1.2l2.6-3.9c0.5-0.7,1.3-1.8,2-2.4C-155.1,107.6-148.6,105.8-145.9,106.1z M-176.5,136.7l2.8-7.6l4.8,4.8
				L-176.5,136.7z M-152.2,112.4l-1.8-1.1l-2.9,2.1l2.4,1.4l1.4,2.3l2-3L-152.2,112.4z"/>
		</g>
		<g>
			<g opacity="0.5">
				<path fill="none" stroke="#5F5F60" stroke-width="2" d="M-145.9,104.1c-0.1,2.5-1.4,8.2-12.8,20.8l-2.5,1.7l-4.1,2.6l-2.9,1.9
					l-2-2l-2.4-2.4l1.1-2.8c0.2-0.4,0.4-0.8,0.6-1.2l2.6-3.9c0.5-0.7,1.3-1.8,2-2.4C-155.1,105.6-148.6,103.8-145.9,104.1z
					 M-176.5,134.7l2.8-7.6l4.8,4.8L-176.5,134.7z M-152.2,110.4l-1.8-1.1l-2.9,2.1l2.4,1.4l1.4,2.3l2-3L-152.2,110.4z"/>
			</g>
			<path d="M-145.9,104.1c-0.1,2.5-1.4,8.2-12.8,20.8l-2.5,1.7l-4.1,2.6l-2.9,1.9l-2-2l-2.4-2.4l1.1-2.8c0.2-0.4,0.4-0.8,0.6-1.2
				l2.6-3.9c0.5-0.7,1.3-1.8,2-2.4C-155.1,105.6-148.6,103.8-145.9,104.1z M-176.5,134.7l2.8-7.6l4.8,4.8L-176.5,134.7z
				 M-152.2,110.4l-1.8-1.1l-2.9,2.1l2.4,1.4l1.4,2.3l2-3L-152.2,110.4z"/>
		</g>
	</g>
</g>
</svg>
